<svg width="20" height="22" viewBox="0 0 20 22" fill="none" xmlns="http://www.w3.org/2000/svg">
<path d="M16.0121 7.40698L16.9601 7.72301C17.9495 8.05281 18.4442 8.21771 18.7272 8.61029C19.0102 9.00287 19.0102 9.52433 19.0102 10.5672V16.2304C19.0102 17.5204 19.0102 18.1655 18.6707 18.5798C18.5553 18.7206 18.4154 18.8391 18.2576 18.9297C17.7931 19.1965 17.1568 19.0905 15.8843 18.8784C14.6286 18.6691 14.0008 18.5645 13.3786 18.6165C13.1602 18.6348 12.9433 18.6674 12.7292 18.7142C12.1191 18.8474 11.5448 19.1346 10.3963 19.7088C8.8975 20.4582 8.14811 20.8329 7.35042 20.9484C7.11016 20.9832 6.86768 21.0004 6.62492 21C5.81891 20.9985 5.03092 20.7358 3.45494 20.2105L3.07162 20.0827C2.08222 19.7529 1.58752 19.588 1.30456 19.1954C1.02161 18.8028 1.02161 18.2814 1.02161 17.2384V12.3119C1.02161 10.654 1.02161 9.82511 1.50971 9.3793C1.59512 9.3013 1.68927 9.23344 1.79028 9.17708C2.36756 8.855 3.15394 9.11713 4.7267 9.64138" stroke="#202020" stroke-width="1.5"/>
<path d="M4.01978 7.10748C4.01978 3.96129 6.70436 1.4108 10.016 1.4108C13.3276 1.4108 16.0121 3.96129 16.0121 7.10748C16.0121 10.229 14.0984 13.8716 11.1125 15.1742C10.4164 15.4778 9.61552 15.4778 8.91946 15.1742C5.93355 13.8716 4.01978 10.229 4.01978 7.10748Z" stroke="#202020" stroke-width="1.5"/>
<ellipse cx="10.0159" cy="7.40699" rx="1.99873" ry="1.99873" stroke="#202020" stroke-width="1.5"/>
</svg>
