<svg width="20" height="20" viewBox="0 0 20 20" fill="none" xmlns="http://www.w3.org/2000/svg">
<path fill-rule="evenodd" clip-rule="evenodd" d="M2.00869 1.32057C3.92894 -0.59968 7.16939 -0.453705 8.50643 1.94208L9.24823 3.27125C10.1214 4.83576 9.74928 6.80974 8.47111 8.10353C8.45408 8.12685 8.36386 8.25821 8.35263 8.48774C8.33828 8.7807 8.44233 9.45822 9.49205 10.5079C10.5414 11.5573 11.2189 11.6616 11.512 11.6474C11.7417 11.6362 11.8731 11.5459 11.8965 11.5289C13.1903 10.2507 15.1643 9.87865 16.7287 10.7518L18.0579 11.4936C20.4537 12.8306 20.5997 16.0711 18.6794 17.9913C17.6523 19.0184 16.2866 19.9311 14.6816 19.9919C12.3032 20.0821 8.35402 19.4679 4.44307 15.5569C0.532119 11.646 -0.0820907 7.69679 0.00807444 5.31837C0.0689174 3.71343 0.981562 2.3477 2.00869 1.32057ZM7.00936 2.77757C6.32471 1.55078 4.4849 1.26894 3.22098 2.53286C2.33479 3.41904 1.75866 4.3972 1.72128 5.38332C1.64609 7.36674 2.13578 10.8251 5.65536 14.3446C9.17495 17.8642 12.6333 18.3539 14.6167 18.2787C15.6028 18.2413 16.581 17.6652 17.4671 16.779C18.7311 15.5151 18.4492 13.6753 17.2224 12.9906L15.8933 12.2488C15.0664 11.7874 13.905 11.9448 13.0898 12.7601L13.0895 12.7603C13.0094 12.8404 12.4999 13.3158 11.5952 13.3598C10.6692 13.4048 9.54827 12.9887 8.27976 11.7202C7.01084 10.4513 6.59489 9.33007 6.64024 8.40389C6.68454 7.49923 7.16026 6.98992 7.23986 6.91031L7.2399 6.91028C8.05519 6.09498 8.21259 4.93358 7.75115 4.10675L7.00936 2.77757Z" fill="#1C274C"/>
</svg>
