<svg width="299" height="131" viewBox="0 0 299 131" fill="none" xmlns="http://www.w3.org/2000/svg">
<g clip-path="url(#clip0_3_3791)">
<path d="M178.29 128.913V129.519H166.688V128.913C169.667 128.913 172.003 124.516 173.775 120.477H174.148C173.121 124.325 172.793 128.913 178.301 128.913H178.29ZM199.868 128.913V129.519H188.074V128.913C190.546 128.913 191.708 127.242 190.873 124.74L181.269 100.463C180.434 98.8362 179.08 98.7016 179.08 98.7016C182.578 97.9611 184.53 95.594 184.53 95.594C184.53 95.594 195.906 124.46 195.997 124.639C197.633 128.341 198.051 128.902 199.868 128.902V128.913Z" fill="white"/>
<path d="M222.653 122.698C221.863 126.726 219.392 130.069 212.304 130.069C202 130.069 200.657 122.564 200.657 117.235V99.8571C200.657 97.0749 199.021 96.2447 196.606 96.2447V95.6389H208.952V96.2447C206.436 96.2447 205.454 97.03 205.454 99.902C205.454 101.944 205.318 118.895 205.736 121.116C206.108 123.663 207.045 126.255 209.517 127.511C210.498 128.016 211.525 128.207 212.643 128.207C218.511 128.207 221.175 125.514 222.247 122.698H222.664H222.653ZM217.202 96.2896V95.6389H229.086V96.2896C227.359 96.2896 225.915 96.8505 225.26 98.0509C224.188 99.8571 223.624 103.189 223.353 105.926H222.845C222.653 103.189 222.235 99.8571 221.208 98.006C220.509 96.8057 219.019 96.2896 217.202 96.2896Z" fill="white"/>
<path d="M245.348 128.913V129.519H231.885V128.913C233.047 128.913 235.981 129.048 235.981 125.581V99.6328C235.981 96.155 232.81 96.256 231.93 96.256V95.6501H240.834V125.537C240.834 129.104 244.05 128.913 245.36 128.913H245.348ZM263.01 128.913V129.519H256.577C248.655 129.519 250.89 114.138 245.529 112.938C247.21 112.702 251.397 111.087 251.397 104.457C251.397 96.7159 244.829 95.6501 244.829 95.6501C249.863 95.6501 257.04 96.9066 257.04 104.457C257.04 110.436 251.262 112.287 248.328 112.837C257.65 114.273 255.37 128.913 263.01 128.913Z" fill="white"/>
<path d="M277.422 128.913V129.519H265.82V128.913C268.8 128.913 271.136 124.516 272.908 120.477H273.28C272.253 124.325 271.926 128.913 277.433 128.913H277.422ZM299 128.913V129.519H287.207V128.913C289.678 128.913 290.841 127.242 290.005 124.74L280.401 100.463C279.566 98.8362 278.212 98.7016 278.212 98.7016C281.711 97.9611 283.663 95.594 283.663 95.594C283.663 95.594 295.039 124.46 295.129 124.639C296.765 128.341 297.183 128.902 299 128.902V128.913Z" fill="white"/>
<path d="M16.5898 119.557C17.6168 122.429 19.9868 119.052 20.551 117.56H20.9686L18.5422 124.28L15.8901 131L3.63396 99.8683C3.63396 99.8683 2.51668 96.3906 0 96.3906V95.6501H11.7483V96.3906L10.5407 96.4803C9.7056 96.5701 8.85918 96.7608 8.35133 97.4115C7.93376 98.0622 8.76889 99.8683 9.2316 101.069L16.6011 119.557H16.5898ZM33.1344 95.6501V96.256C30.2905 96.256 27.4917 101.54 25.3925 106.308H24.9298C26.239 101.675 26.792 96.256 21.5329 96.256V95.6501H33.1344Z" fill="white"/>
<path d="M44.2281 125.581C44.2281 128.453 45.9097 128.913 47.7718 128.913V129.519H35.9332V128.913C37.7502 128.913 39.4769 128.453 39.4769 125.581V99.5879C39.4769 96.7159 37.7502 96.256 35.9332 96.256V95.6501H47.7718V96.256C45.9097 96.256 44.2281 96.7159 44.2281 99.5879V125.581Z" fill="white"/>
<path d="M63.0074 96.3008C61.1001 96.3008 59.6556 96.5813 59.6556 99.7786V129.519H50.5707V128.869C52.4328 128.869 54.6673 128.824 54.6673 125.581V99.6328C54.6673 96.4354 52.1055 96.256 50.5707 96.256V95.6501H63.0187V96.3008H63.0074ZM76.8999 119.467L75.8729 129.519H65.5692V129.149C68.5937 128.364 74.5187 126.041 75.9632 119.467H76.8999Z" fill="white"/>
<path d="M92.1354 96.3008C90.2282 96.3008 88.7836 96.5813 88.7836 99.7786V129.519H79.6987V128.869C81.5609 128.869 83.7954 128.824 83.7954 125.581V99.6328C83.7954 96.4354 81.2336 96.256 79.6987 96.256V95.6501H92.1467V96.3008H92.1354ZM106.028 119.467L105.001 129.519H94.6973V129.149C97.7218 128.364 103.647 126.041 105.091 119.467H106.028Z" fill="white"/>
<path d="M120.428 128.913V129.519H108.827V128.913C111.806 128.913 114.142 124.516 115.914 120.477H116.287C115.26 124.325 114.932 128.913 120.44 128.913H120.428ZM142.006 128.913V129.519H130.213V128.913C132.684 128.913 133.847 127.242 133.012 124.74L123.408 100.463C122.573 98.8362 121.218 98.7016 121.218 98.7016C124.717 97.9611 126.669 95.594 126.669 95.594C126.669 95.594 138.045 124.46 138.135 124.639C139.772 128.341 140.189 128.902 142.006 128.902V128.913Z" fill="white"/>
<path d="M157.242 111.794C156.497 110.448 156.192 108.024 156.057 106.039H155.685C155.481 108.024 155.075 110.448 154.296 111.76C153.822 112.635 152.773 113.039 151.52 113.039V113.555C152.841 113.555 153.924 113.925 154.432 114.8C155.177 116.147 155.549 118.57 155.685 120.555H156.057C156.26 118.57 156.599 116.147 157.377 114.834C157.851 113.959 158.901 113.555 160.154 113.555V113.039C158.833 113.039 157.75 112.669 157.242 111.794Z" fill="white"/>
<path d="M163.122 54.0963L163.539 54.1972C163.539 54.1972 163.596 54.1972 163.63 54.1972C163.788 54.1972 163.934 54.085 163.979 53.928L177.24 1.33502C177.263 1.24527 177.24 1.1443 177.195 1.06577C177.15 0.987242 177.071 0.931149 176.969 0.908712L176.066 0.684339C175.976 0.661902 175.874 0.684339 175.795 0.729214C175.716 0.774088 175.66 0.852619 175.637 0.953587L162.851 53.6812C162.806 53.8719 162.919 54.0626 163.11 54.1075L163.122 54.0963Z" fill="white"/>
<path d="M175.491 60.2215L175.795 60.4795C175.863 60.5356 175.942 60.558 176.021 60.558C176.123 60.558 176.224 60.5131 176.292 60.4346L211.367 18.8808C211.424 18.8135 211.458 18.7125 211.446 18.6228C211.446 18.533 211.39 18.4433 211.322 18.3872L210.589 17.7814C210.51 17.7253 210.431 17.6916 210.329 17.7028C210.239 17.7028 210.149 17.7589 210.092 17.8262L175.445 59.7278C175.321 59.8737 175.344 60.0981 175.491 60.2215Z" fill="white"/>
<path d="M136.262 59.7055C136.33 59.7953 136.443 59.8402 136.544 59.8402C136.623 59.8402 136.702 59.8177 136.759 59.7616L137.029 59.5597C137.187 59.4363 137.21 59.2231 137.097 59.0661L103.974 15.9641C103.917 15.8856 103.827 15.8407 103.737 15.8295C103.647 15.8182 103.545 15.8407 103.477 15.8968L102.676 16.5138C102.597 16.5699 102.552 16.6596 102.541 16.7494C102.529 16.8391 102.552 16.9401 102.608 17.0074L136.262 59.7055Z" fill="white"/>
<path d="M148.834 53.6699C148.868 53.8381 149.015 53.9503 149.184 53.9503C149.207 53.9503 149.229 53.9503 149.263 53.9503L149.511 53.8942C149.703 53.8494 149.827 53.6699 149.782 53.4791L139.083 0.280375C139.05 0.0896586 138.858 -0.0337464 138.666 -9.04589e-05C138.305 0.0672214 137.944 0.145752 137.582 0.224282C137.391 0.269157 137.266 0.459874 137.312 0.65059L148.845 53.6699H148.834Z" fill="white"/>
<path d="M78.5476 46.6693L127.504 70.6099C127.504 70.6099 127.606 70.6436 127.662 70.6436C127.798 70.6436 127.922 70.5762 127.978 70.4528L128.125 70.1612C128.215 69.9817 128.148 69.7797 127.967 69.69L79.3263 45.1212C79.2473 45.0763 79.1457 45.0763 79.0554 45.0987C78.9651 45.1324 78.8861 45.1885 78.8523 45.2782L78.3896 46.1981C78.3444 46.2879 78.3444 46.3776 78.367 46.4674C78.4009 46.5571 78.4573 46.6357 78.5476 46.6693Z" fill="white"/>
<path d="M124.435 84.2519C124.627 84.2519 124.785 84.0949 124.796 83.9042V83.4666C124.796 83.2759 124.649 83.1076 124.446 83.1076L69.8915 82.1541C69.7787 82.1428 69.6997 82.1877 69.632 82.255C69.5643 82.3223 69.5191 82.4121 69.5191 82.5018V83.4105C69.5078 83.5003 69.5417 83.6013 69.6094 83.6686C69.6771 83.7359 69.7674 83.7695 69.8577 83.7808L124.423 84.2519H124.435Z" fill="white"/>
<path d="M184.023 71.1261L184.203 71.5188C184.26 71.6534 184.395 71.7207 184.53 71.7207C184.575 71.7207 184.632 71.7207 184.677 71.6871L234.367 49.2947C234.458 49.261 234.525 49.1825 234.559 49.0927C234.593 49.003 234.593 48.902 234.559 48.8235L234.176 47.9933C234.142 47.9036 234.063 47.8362 233.972 47.8026C233.882 47.7689 233.781 47.7689 233.702 47.8026L184.214 70.6437C184.034 70.7223 183.955 70.9354 184.045 71.1149L184.023 71.1261Z" fill="white"/>
<path d="M242.053 83.8593C241.985 83.792 241.895 83.7583 241.805 83.7583H187.239C187.047 83.7583 186.878 83.9154 186.878 84.1061V84.4651C186.878 84.6558 187.036 84.8241 187.228 84.8241L241.782 85.4635C241.872 85.4635 241.963 85.4299 242.03 85.3626C242.098 85.2952 242.132 85.2055 242.132 85.1158V84.1285C242.132 84.0388 242.098 83.9378 242.03 83.8817L242.053 83.8593Z" fill="white"/>
<path d="M146.679 55.0723C146.261 55.1957 145.855 55.3303 145.448 55.4762L141.453 40.9368C141.431 40.8471 141.442 40.7461 141.487 40.6676C141.532 40.589 141.611 40.5329 141.702 40.4993L142.492 40.2861C142.582 40.2637 142.683 40.2861 142.762 40.3198C142.841 40.3647 142.909 40.4432 142.932 40.5329L146.679 55.0611V55.0723Z" fill="white"/>
<path d="M141.69 57.0916C141.307 57.2823 140.934 57.4842 140.573 57.6974L133.463 43.7975C133.373 43.6292 133.441 43.4049 133.621 43.3263C133.869 43.2029 134.118 43.0795 134.366 42.9561C134.456 42.9112 134.547 42.9112 134.637 42.9449C134.727 42.9785 134.795 43.0346 134.84 43.1244L141.69 57.1028V57.0916Z" fill="white"/>
<path d="M194.902 59.0772C194.891 59.1669 194.834 59.2455 194.755 59.3016L182.07 68.0633C181.844 67.7043 181.607 67.3565 181.37 67.0088L193.875 58.0563C194.033 57.9441 194.259 57.9778 194.371 58.1348C194.529 58.3592 194.699 58.5836 194.857 58.8079C194.913 58.8865 194.936 58.9762 194.913 59.0772H194.902Z" fill="white"/>
<path d="M125.394 78.6538C125.315 79.0689 125.236 79.4728 125.18 79.8879L109.368 78.508C109.278 78.508 109.188 78.4519 109.131 78.3846C109.075 78.3173 109.041 78.2163 109.052 78.1266C109.075 77.8461 109.109 77.5656 109.131 77.2964C109.154 77.1057 109.335 76.9598 109.526 76.9823L125.405 78.6651L125.394 78.6538Z" fill="white"/>
<path d="M201.809 72.8538C201.752 72.9324 201.673 72.9885 201.583 73.0109L185.738 76.3092C185.625 75.8941 185.501 75.4902 185.377 75.0863L201.267 71.5188C201.357 71.4964 201.459 71.5188 201.538 71.5637C201.617 71.6086 201.673 71.6983 201.696 71.7881L201.865 72.5846C201.888 72.6743 201.865 72.7753 201.82 72.8538H201.809Z" fill="white"/>
<path d="M126.76 73.7961C126.613 74.1887 126.477 74.5926 126.342 74.9965L111.039 70.4193C110.847 70.3632 110.745 70.1612 110.802 69.9817C110.881 69.7125 110.96 69.4545 111.05 69.1852C111.106 68.9945 111.31 68.9048 111.501 68.9609L126.76 73.7961Z" fill="white"/>
<path d="M189.304 52.75C189.304 52.8398 189.27 52.9407 189.203 53.0081L178.82 63.834C178.538 63.5199 178.233 63.2058 177.928 62.9029L188.074 51.9647C188.142 51.8974 188.221 51.8525 188.322 51.8525C188.413 51.8525 188.503 51.8862 188.582 51.9423C188.785 52.133 188.988 52.3125 189.191 52.5032C189.259 52.5705 189.304 52.6603 189.304 52.75Z" fill="white"/>
<path d="M202.7 79.0577C202.7 79.1474 202.678 79.2484 202.61 79.3157C202.542 79.383 202.463 79.4279 202.362 79.4391L186.562 80.3927C186.505 79.9664 186.438 79.5513 186.37 79.1362L202.249 77.9358C202.339 77.9358 202.441 77.9582 202.508 78.0255C202.576 78.0929 202.621 78.1714 202.633 78.2723L202.689 79.0801L202.7 79.0577Z" fill="white"/>
<path d="M173.177 42.0698L167.895 56.1155C167.5 55.9472 167.105 55.7901 166.71 55.6443L171.721 41.5425C171.789 41.363 171.992 41.262 172.173 41.3293C172.444 41.4191 172.703 41.52 172.974 41.6098C173.155 41.6771 173.256 41.879 173.188 42.0698H173.177Z" fill="white"/>
<path d="M162.501 39.4671L160.278 54.0064C159.849 53.9391 159.42 53.8943 158.991 53.8494L160.989 39.2427C161 39.153 161.056 39.0632 161.124 39.0071C161.203 38.951 161.293 38.9286 161.395 38.9398L162.207 39.052C162.298 39.052 162.388 39.1193 162.444 39.1866C162.501 39.2652 162.523 39.3549 162.512 39.4559L162.501 39.4671Z" fill="white"/>
<path d="M180.648 46.1645L172.793 58.707C172.432 58.4714 172.071 58.247 171.699 58.0226L179.35 45.368C179.395 45.2895 179.474 45.2334 179.576 45.211C179.666 45.1885 179.768 45.211 179.847 45.2558L180.535 45.6821C180.614 45.727 180.671 45.8168 180.693 45.9065C180.716 45.9963 180.693 46.0972 180.648 46.1758V46.1645Z" fill="white"/>
<path d="M130.551 66.6835C130.303 67.0312 130.066 67.379 129.84 67.738L116.58 59.8289C116.501 59.784 116.445 59.7055 116.422 59.6157C116.399 59.526 116.422 59.425 116.467 59.3465C116.614 59.1109 116.749 58.8753 116.896 58.6397C116.998 58.4714 117.223 58.4265 117.392 58.5275L130.563 66.6947L130.551 66.6835Z" fill="white"/>
<path d="M154.42 53.7372C153.992 53.7484 153.551 53.7821 153.123 53.8157L152.163 39.0071C152.163 38.9062 152.186 38.8164 152.254 38.7491C152.321 38.6818 152.4 38.6369 152.502 38.6257L153.314 38.5808C153.405 38.5808 153.506 38.6032 153.574 38.6706C153.642 38.7379 153.687 38.8164 153.687 38.9174L154.432 53.726L154.42 53.7372Z" fill="white"/>
<path d="M134.163 62.4766C133.869 62.757 133.576 63.0599 133.294 63.3628L121.726 52.851C121.579 52.7164 121.568 52.492 121.704 52.3461C121.895 52.133 122.099 51.9198 122.29 51.7179C122.358 51.6506 122.448 51.6057 122.539 51.6057C122.629 51.6057 122.719 51.6394 122.798 51.7067L134.174 62.4766H134.163Z" fill="white"/>
<path d="M150.708 12.5985C150.708 12.5087 150.651 12.419 150.583 12.3629C150.516 12.3068 150.414 12.2732 150.324 12.2844C149.974 12.318 149.635 12.3517 149.297 12.3853C149.105 12.4078 148.958 12.5761 148.981 12.778L150.098 23.4918C150.121 23.6713 150.267 23.8059 150.448 23.8059C150.459 23.8059 150.471 23.8059 150.482 23.8059L151.34 23.7274C151.531 23.7049 151.678 23.5367 151.656 23.3459L150.696 12.6209L150.708 12.5985Z" fill="white"/>
<path d="M225.294 62.2859C225.339 62.2073 225.35 62.1064 225.316 62.0166L225.012 61.063C224.989 60.9733 224.921 60.8947 224.831 60.8499C224.752 60.805 224.651 60.7938 224.56 60.8274L214.234 64.0921C214.042 64.1481 213.941 64.3501 213.997 64.5408L214.257 65.371C214.302 65.528 214.448 65.6178 214.595 65.6178C214.629 65.6178 214.663 65.6178 214.697 65.6066L225.057 62.4653C225.147 62.4429 225.226 62.3756 225.271 62.2971L225.294 62.2859Z" fill="white"/>
<path d="M216.965 77.3635C216.965 77.3635 216.988 77.3635 216.999 77.3635L227.788 76.3089C227.878 76.3089 227.969 76.2529 228.025 76.1855C228.081 76.107 228.115 76.0173 228.104 75.9275L228.002 74.9178C228.002 74.8281 227.946 74.7383 227.867 74.6822C227.788 74.6261 227.698 74.5925 227.607 74.6037L216.841 75.7929C216.649 75.8153 216.502 75.9836 216.525 76.1855L216.615 77.0494C216.638 77.2289 216.785 77.3635 216.965 77.3635Z" fill="white"/>
<path d="M84.9465 72.8425C84.8562 72.8425 84.7546 72.8537 84.6869 72.9098C84.6079 72.9659 84.5628 73.0557 84.5515 73.1454L84.4273 74.1551C84.416 74.2448 84.4386 74.3458 84.5063 74.4131C84.5628 74.4917 84.653 74.5365 84.7433 74.5477L95.5098 75.7818C95.5098 75.7818 95.5323 75.7818 95.5549 75.7818C95.7355 75.7818 95.8822 75.6472 95.9048 75.4677L96.0063 74.6038C96.0289 74.4131 95.8935 74.2336 95.7016 74.2112L84.9578 72.8313L84.9465 72.8425Z" fill="white"/>
<path d="M98.0716 64.0696C98.2184 64.0696 98.3651 63.9799 98.4102 63.8228L98.6811 63.0038C98.7375 62.8131 98.6472 62.6224 98.4553 62.5551L88.1855 59.1222C87.9936 59.0549 87.8018 59.1558 87.7341 59.3466C87.6212 59.6719 87.5196 59.9972 87.4068 60.3226C87.3729 60.4123 87.3842 60.5133 87.4293 60.5918C87.4745 60.6704 87.5422 60.7377 87.6325 60.7713L97.9588 64.0472C97.9588 64.0472 98.0265 64.0584 98.0716 64.0584V64.0696Z" fill="white"/>
<path d="M123.171 31.5019C123.238 31.6141 123.351 31.6702 123.475 31.6702C123.543 31.6702 123.6 31.659 123.656 31.6141L124.401 31.1654C124.57 31.0644 124.627 30.8512 124.525 30.683L118.961 21.4388C118.916 21.3603 118.837 21.3042 118.747 21.2818C118.657 21.2593 118.555 21.2818 118.476 21.3266C118.183 21.5061 117.889 21.6744 117.596 21.8539C117.517 21.8988 117.46 21.9773 117.438 22.0783C117.415 22.168 117.438 22.269 117.483 22.3475L123.182 31.5131L123.171 31.5019Z" fill="white"/>
<path d="M201.447 43.0795C201.526 43.0795 201.617 43.0458 201.684 42.9897L209.787 35.8322C209.934 35.6976 209.945 35.4732 209.821 35.3274C209.596 35.0694 209.37 34.8226 209.133 34.5758C208.997 34.4299 208.772 34.4187 208.625 34.5533L200.624 41.8118C200.477 41.9464 200.466 42.1708 200.601 42.3166L201.188 42.9673C201.256 43.0458 201.357 43.0795 201.459 43.0795H201.447Z" fill="white"/>
<path d="M133.96 26.1729C134.016 26.3187 134.152 26.4085 134.298 26.4085C134.343 26.4085 134.377 26.4085 134.422 26.3861L135.246 26.0832C135.427 26.0158 135.528 25.8139 135.461 25.6344L131.793 15.4928C131.759 15.403 131.691 15.3357 131.612 15.2908C131.522 15.2459 131.432 15.2459 131.341 15.2796L130.393 15.6274C130.303 15.661 130.235 15.7284 130.19 15.8069C130.145 15.8966 130.145 15.9864 130.19 16.0761L133.971 26.1729H133.96Z" fill="white"/>
<path d="M95.6791 43.8424L104.911 49.4742C104.967 49.5078 105.035 49.5303 105.103 49.5303C105.227 49.5303 105.34 49.4742 105.407 49.362L105.87 48.6216C105.972 48.4533 105.926 48.2401 105.757 48.1392L96.5932 42.3952C96.5142 42.3504 96.4127 42.3279 96.3224 42.3504C96.2321 42.3728 96.1531 42.4289 96.0967 42.5074L95.555 43.36C95.5098 43.4386 95.4873 43.5395 95.5098 43.6293C95.5324 43.719 95.5888 43.7976 95.6678 43.8537L95.6791 43.8424Z" fill="white"/>
<path d="M207.79 51.8525L208.23 52.5929C208.298 52.7051 208.411 52.7612 208.535 52.7612C208.591 52.7612 208.659 52.75 208.715 52.7163L218.06 47.264C218.229 47.1631 218.286 46.9499 218.184 46.7816C218.015 46.49 217.834 46.1871 217.654 45.8954C217.552 45.7271 217.326 45.671 217.168 45.772L207.903 51.3588C207.734 51.4598 207.677 51.673 207.779 51.8412L207.79 51.8525Z" fill="white"/>
<path d="M189.62 31.9395C189.688 31.9844 189.756 32.0068 189.823 32.0068C189.936 32.0068 190.049 31.9507 190.117 31.861L196.346 23.0431C196.459 22.886 196.425 22.6617 196.256 22.5495C195.974 22.3475 195.681 22.1568 195.398 21.9549C195.229 21.8427 195.015 21.8876 194.902 22.0446L188.819 30.9635C188.762 31.042 188.751 31.1317 188.762 31.2327C188.785 31.3225 188.83 31.4122 188.909 31.4571C189.146 31.6141 189.383 31.7824 189.609 31.9395H189.62Z" fill="white"/>
<path d="M162.478 23.7272L163.359 23.817C163.359 23.817 163.381 23.817 163.393 23.817C163.573 23.817 163.731 23.6823 163.742 23.5028L164.871 12.789C164.871 12.6993 164.848 12.5983 164.792 12.531C164.736 12.4525 164.645 12.4076 164.555 12.4076L163.539 12.3066C163.449 12.3066 163.347 12.3291 163.28 12.3852C163.201 12.4413 163.156 12.531 163.156 12.6208L162.162 23.3458C162.14 23.5365 162.287 23.716 162.478 23.7272Z" fill="white"/>
<path d="M178.391 25.758C178.651 25.8702 178.91 25.9824 179.181 26.0945C179.226 26.117 179.271 26.1282 179.328 26.1282C179.463 26.1282 179.599 26.0497 179.655 25.915L184.034 16.0651C184.113 15.8856 184.034 15.6724 183.853 15.5939C183.537 15.4481 183.21 15.3134 182.894 15.1788C182.804 15.1452 182.713 15.1452 182.623 15.1788C182.533 15.2125 182.465 15.2798 182.431 15.3695L178.222 25.298C178.143 25.4775 178.222 25.6907 178.414 25.758H178.391Z" fill="white"/>
<path d="M105.114 31.2102C105.023 31.2102 104.933 31.2551 104.865 31.3224C104.628 31.5692 104.391 31.816 104.154 32.074C104.019 32.2199 104.03 32.4443 104.177 32.5789L112.145 39.8822C112.212 39.9495 112.303 39.972 112.382 39.972C112.472 39.972 112.574 39.9383 112.641 39.8598L113.239 39.2315C113.375 39.0857 113.363 38.8613 113.228 38.7267L105.373 31.3112C105.306 31.2439 105.215 31.2102 105.114 31.2102Z" fill="white"/>
</g>
<defs>
<clipPath id="clip0_3_3791">
<rect width="299" height="131" fill="white"/>
</clipPath>
</defs>
</svg>
