<svg width="380" height="167" viewBox="0 0 380 167" fill="none" xmlns="http://www.w3.org/2000/svg">
<g clip-path="url(#clip0_3_3973)">
<path d="M226.589 164.34V165.112H211.844V164.34C215.631 164.34 218.6 158.734 220.852 153.585H221.325C220.02 158.491 219.604 164.34 226.603 164.34H226.589ZM254.012 164.34V165.112H239.024V164.34C242.165 164.34 243.642 162.209 242.581 159.02L230.375 128.071C229.314 125.997 227.593 125.826 227.593 125.826C232.039 124.882 234.52 121.864 234.52 121.864C234.52 121.864 248.978 158.662 249.093 158.891C251.172 163.611 251.703 164.326 254.012 164.326V164.34Z" fill="#202020"/>
<path d="M282.971 156.417C281.967 161.551 278.825 165.813 269.818 165.813C256.723 165.813 255.016 156.245 255.016 149.452V127.299C255.016 123.752 252.937 122.694 249.867 122.694V121.921H265.558V122.694C262.36 122.694 261.112 123.695 261.112 127.356C261.112 129.959 260.94 151.569 261.471 154.4C261.944 157.647 263.134 160.95 266.275 162.552C267.523 163.196 268.828 163.439 270.248 163.439C277.707 163.439 281.092 160.007 282.454 156.417H282.985H282.971ZM276.043 122.751V121.921H291.146V122.751C288.952 122.751 287.116 123.466 286.284 124.996C284.921 127.299 284.204 131.546 283.86 135.036H283.214C282.971 131.546 282.44 127.299 281.135 124.939C280.245 123.409 278.352 122.751 276.043 122.751Z" fill="#202020"/>
<path d="M311.814 164.34V165.112H294.703V164.34C296.18 164.34 299.909 164.512 299.909 160.092V127.013C299.909 122.579 295.879 122.708 294.76 122.708V121.936H306.077V160.035C306.077 164.583 310.164 164.34 311.828 164.34H311.814ZM334.261 164.34V165.112H326.085C316.016 165.112 318.856 145.505 312.043 143.974C314.18 143.674 319.502 141.615 319.502 133.162C319.502 123.294 311.154 121.936 311.154 121.936C317.551 121.936 326.673 123.537 326.673 133.162C326.673 140.785 319.33 143.145 315.6 143.846C327.448 145.676 324.55 164.34 334.261 164.34Z" fill="#202020"/>
<path d="M352.576 164.34V165.112H337.832V164.34C341.618 164.34 344.587 158.734 346.839 153.585H347.313C346.007 158.491 345.591 164.34 352.591 164.34H352.576ZM380 164.34V165.112H365.012V164.34C368.153 164.34 369.63 162.209 368.569 159.02L356.363 128.071C355.302 125.997 353.58 125.826 353.58 125.826C358.027 124.882 360.508 121.864 360.508 121.864C360.508 121.864 374.966 158.662 375.08 158.891C377.16 163.611 377.691 164.326 380 164.326V164.34Z" fill="#202020"/>
<path d="M21.084 152.412C22.3892 156.074 25.4012 151.769 26.1184 149.867H26.6491L23.5653 158.433L20.1948 167L4.6184 127.313C4.6184 127.313 3.19846 122.88 0 122.88V121.936H14.9309V122.88L13.3962 122.994C12.3349 123.108 11.2592 123.351 10.6137 124.181C10.083 125.01 11.1444 127.313 11.7325 128.843L21.0984 152.412H21.084ZM42.1107 121.936V122.708C38.4963 122.708 34.9392 129.444 32.2715 135.522H31.6834C33.3472 129.616 34.05 122.708 27.3662 122.708V121.936H42.1107Z" fill="#202020"/>
<path d="M56.2097 160.092C56.2097 163.754 58.3468 164.34 60.7134 164.34V165.112H45.6677V164.34C47.9769 164.34 50.1714 163.754 50.1714 160.092V126.955C50.1714 123.294 47.9769 122.708 45.6677 122.708V121.936H60.7134V122.708C58.3468 122.708 56.2097 123.294 56.2097 126.955V160.092Z" fill="#202020"/>
<path d="M80.0762 122.765C77.6523 122.765 75.8164 123.123 75.8164 127.199V165.112H64.2704V164.283C66.637 164.283 69.4768 164.225 69.4768 160.092V127.013C69.4768 122.937 66.221 122.708 64.2704 122.708V121.936H80.0906V122.765H80.0762ZM97.7323 152.298L96.4271 165.112H83.3321V164.64C87.1759 163.639 94.706 160.679 96.5418 152.298H97.7323Z" fill="#202020"/>
<path d="M117.095 122.765C114.671 122.765 112.835 123.123 112.835 127.199V165.112H101.289V164.283C103.656 164.283 106.496 164.225 106.496 160.092V127.013C106.496 122.937 103.24 122.708 101.289 122.708V121.936H117.109V122.765H117.095ZM134.751 152.298L133.446 165.112H120.351V164.64C124.195 163.639 131.725 160.679 133.561 152.298H134.751Z" fill="#202020"/>
<path d="M153.053 164.34V165.112H138.308V164.34C142.095 164.34 145.064 158.734 147.316 153.585H147.789C146.484 158.491 146.068 164.34 153.067 164.34H153.053ZM180.476 164.34V165.112H165.488V164.34C168.629 164.34 170.106 162.209 169.045 159.02L156.839 128.071C155.778 125.997 154.057 125.826 154.057 125.826C158.503 124.882 160.984 121.864 160.984 121.864C160.984 121.864 175.442 158.662 175.557 158.891C177.637 163.611 178.167 164.326 180.476 164.326V164.34Z" fill="#202020"/>
<path d="M199.839 142.516C198.893 140.799 198.505 137.71 198.333 135.179H197.86C197.602 137.71 197.085 140.799 196.096 142.473C195.493 143.588 194.159 144.103 192.567 144.103V144.761C194.245 144.761 195.622 145.233 196.268 146.348C197.214 148.065 197.688 151.154 197.86 153.685H198.333C198.591 151.154 199.022 148.065 200.011 146.391C200.614 145.276 201.948 144.761 203.54 144.761V144.103C201.862 144.103 200.485 143.631 199.839 142.516Z" fill="#202020"/>
<path d="M207.312 68.9624L207.843 69.0911C207.843 69.0911 207.914 69.0911 207.957 69.0911C208.158 69.0911 208.345 68.9481 208.402 68.7479L225.255 1.70189C225.284 1.58748 225.255 1.45876 225.197 1.35865C225.14 1.25854 225.04 1.18703 224.911 1.15843L223.763 0.872399C223.648 0.843795 223.519 0.872399 223.419 0.929605C223.319 0.986812 223.247 1.08692 223.218 1.21564L206.968 68.4332C206.91 68.6764 207.054 68.9195 207.298 68.9767L207.312 68.9624Z" fill="#202020"/>
<path d="M223.032 76.7711L223.419 77.1C223.505 77.1715 223.605 77.2001 223.706 77.2001C223.835 77.2001 223.964 77.1429 224.05 77.0428L268.628 24.0696C268.699 23.9838 268.742 23.8551 268.728 23.7407C268.728 23.6263 268.656 23.5119 268.57 23.4404L267.638 22.6681C267.538 22.5966 267.437 22.5537 267.308 22.568C267.193 22.568 267.079 22.6395 267.007 22.7253L222.974 76.1418C222.816 76.3277 222.845 76.6138 223.032 76.7711Z" fill="#202020"/>
<path d="M173.176 76.1132C173.262 76.2276 173.405 76.2848 173.534 76.2848C173.635 76.2848 173.735 76.2562 173.807 76.1847L174.151 75.9273C174.352 75.77 174.381 75.4983 174.237 75.298L132.141 20.3512C132.069 20.2511 131.954 20.1939 131.84 20.1796C131.725 20.1653 131.596 20.1939 131.51 20.2654L130.491 21.052C130.391 21.1235 130.334 21.2379 130.319 21.3523C130.305 21.4667 130.334 21.5954 130.405 21.6813L173.176 76.1132Z" fill="#202020"/>
<path d="M189.154 68.4189C189.197 68.6335 189.383 68.7765 189.598 68.7765C189.627 68.7765 189.656 68.7765 189.699 68.7765L190.014 68.705C190.258 68.6478 190.416 68.4189 190.359 68.1758L176.762 0.357541C176.719 0.114413 176.475 -0.0429047 176.231 1.49477e-07C175.772 0.0858099 175.313 0.185921 174.854 0.286033C174.61 0.343239 174.452 0.586366 174.51 0.829494L189.168 68.4189H189.154Z" fill="#202020"/>
<path d="M99.8263 59.4947L162.046 90.0144C162.046 90.0144 162.175 90.0573 162.247 90.0573C162.419 90.0573 162.576 89.9715 162.648 89.8142L162.835 89.4423C162.949 89.2135 162.863 88.9561 162.634 88.8417L100.816 57.5211C100.716 57.4639 100.587 57.4639 100.472 57.4925C100.357 57.5354 100.257 57.6069 100.214 57.7213L99.6255 58.8941C99.5682 59.0085 99.5682 59.1229 99.5968 59.2373C99.6399 59.3517 99.7116 59.4518 99.8263 59.4947Z" fill="#202020"/>
<path d="M158.145 107.405C158.388 107.405 158.589 107.205 158.603 106.962V106.404C158.603 106.161 158.417 105.946 158.159 105.946L88.8254 104.731C88.682 104.716 88.5816 104.774 88.4955 104.859C88.4095 104.945 88.3521 105.06 88.3521 105.174V106.333C88.3377 106.447 88.3808 106.576 88.4668 106.661C88.5529 106.747 88.6676 106.79 88.7824 106.804L158.13 107.405H158.145Z" fill="#202020"/>
<path d="M233.875 90.6723L234.104 91.1728C234.176 91.3444 234.348 91.4302 234.52 91.4302C234.578 91.4302 234.649 91.4302 234.707 91.3873L297.858 62.8413C297.973 62.7984 298.059 62.6983 298.102 62.5839C298.145 62.4695 298.145 62.3408 298.102 62.2406L297.615 61.1823C297.572 61.0679 297.471 60.9821 297.356 60.9392C297.242 60.8963 297.113 60.8963 297.012 60.9392L234.119 90.0573C233.889 90.1574 233.789 90.4291 233.904 90.658L233.875 90.6723Z" fill="#202020"/>
<path d="M307.626 106.905C307.54 106.819 307.425 106.776 307.31 106.776H237.963C237.719 106.776 237.504 106.976 237.504 107.219V107.677C237.504 107.92 237.704 108.135 237.948 108.135L307.282 108.95C307.396 108.95 307.511 108.907 307.597 108.821C307.683 108.735 307.726 108.621 307.726 108.506V107.248C307.726 107.133 307.683 107.005 307.597 106.933L307.626 106.905Z" fill="#202020"/>
<path d="M186.414 70.2067C185.884 70.364 185.367 70.5356 184.851 70.7215L179.773 52.1866C179.745 52.0722 179.759 51.9435 179.817 51.8434C179.874 51.7433 179.974 51.6718 180.089 51.6288L181.093 51.3571C181.208 51.3285 181.337 51.3571 181.437 51.4C181.538 51.4572 181.624 51.5573 181.652 51.6718L186.414 70.1924V70.2067Z" fill="#202020"/>
<path d="M180.075 72.7809C179.587 73.0241 179.114 73.2815 178.655 73.5532L169.619 55.8335C169.504 55.619 169.59 55.333 169.82 55.2328C170.135 55.0755 170.451 54.9182 170.766 54.7609C170.881 54.7037 170.996 54.7037 171.111 54.7466C171.225 54.7895 171.311 54.861 171.369 54.9754L180.075 72.7952V72.7809Z" fill="#202020"/>
<path d="M247.701 75.3123C247.687 75.4267 247.615 75.5269 247.515 75.5984L231.394 86.7679C231.107 86.3103 230.805 85.8669 230.504 85.4236L246.396 74.0109C246.597 73.8679 246.884 73.9108 247.027 74.111C247.228 74.397 247.443 74.6831 247.644 74.9691C247.716 75.0692 247.744 75.1836 247.716 75.3123H247.701Z" fill="#202020"/>
<path d="M159.364 100.269C159.263 100.798 159.163 101.313 159.091 101.842L138.997 100.083C138.882 100.083 138.767 100.011 138.696 99.9254C138.624 99.8396 138.581 99.7109 138.595 99.5965C138.624 99.2389 138.667 98.8814 138.696 98.5381C138.724 98.295 138.954 98.1091 139.198 98.1377L159.378 100.283L159.364 100.269Z" fill="#202020"/>
<path d="M256.479 92.8747C256.407 92.9748 256.307 93.0463 256.192 93.0749L236.055 97.2796C235.912 96.7504 235.754 96.2356 235.596 95.7207L255.791 91.1728C255.905 91.1442 256.035 91.1728 256.135 91.23C256.235 91.2872 256.307 91.4016 256.336 91.5161L256.551 92.5315C256.58 92.6459 256.551 92.7746 256.494 92.8747H256.479Z" fill="#202020"/>
<path d="M161.099 94.076C160.913 94.5766 160.741 95.0915 160.568 95.6063L141.12 89.7713C140.876 89.6998 140.747 89.4423 140.818 89.2135C140.919 88.8703 141.019 88.5413 141.134 88.1981C141.206 87.955 141.464 87.8405 141.708 87.9121L161.099 94.076Z" fill="#202020"/>
<path d="M240.587 67.2462C240.587 67.3606 240.544 67.4893 240.458 67.5752L227.263 81.3762C226.904 80.9758 226.517 80.5753 226.13 80.1892L239.024 66.2451C239.11 66.1593 239.21 66.1021 239.339 66.1021C239.454 66.1021 239.569 66.145 239.669 66.2165C239.927 66.4596 240.186 66.6885 240.444 66.9316C240.53 67.0174 240.587 67.1318 240.587 67.2462Z" fill="#202020"/>
<path d="M257.612 100.784C257.612 100.898 257.584 101.027 257.498 101.112C257.411 101.198 257.311 101.255 257.182 101.27L237.102 102.485C237.03 101.942 236.944 101.413 236.858 100.884L257.039 99.3533C257.153 99.3533 257.282 99.382 257.368 99.4678C257.455 99.5536 257.512 99.6537 257.526 99.7824L257.598 100.812L257.612 100.784Z" fill="#202020"/>
<path d="M220.091 53.6311L213.379 71.5367C212.877 71.3222 212.375 71.1219 211.873 70.936L218.241 52.9589C218.327 52.7301 218.585 52.6014 218.815 52.6872C219.159 52.8016 219.489 52.9303 219.833 53.0447C220.063 53.1305 220.192 53.3879 220.106 53.6311H220.091Z" fill="#202020"/>
<path d="M206.523 50.3131L203.697 68.848C203.152 68.7622 202.607 68.705 202.062 68.6478L204.601 50.0271C204.615 49.9127 204.687 49.7982 204.773 49.7267C204.874 49.6552 204.988 49.6266 205.117 49.6409L206.15 49.7839C206.265 49.7839 206.38 49.8698 206.451 49.9556C206.523 50.0557 206.552 50.1701 206.537 50.2988L206.523 50.3131Z" fill="#202020"/>
<path d="M229.586 58.8512L219.604 74.8404C219.145 74.54 218.686 74.254 218.212 73.968L227.937 57.8357C227.994 57.7356 228.095 57.6641 228.224 57.6355C228.338 57.6069 228.468 57.6355 228.568 57.6927L229.443 58.2362C229.543 58.2934 229.615 58.4078 229.644 58.5222C229.672 58.6366 229.644 58.7653 229.586 58.8655V58.8512Z" fill="#202020"/>
<path d="M165.918 85.0088C165.603 85.4522 165.302 85.8955 165.015 86.3532L148.162 76.2705C148.061 76.2133 147.99 76.1132 147.961 75.9988C147.932 75.8844 147.961 75.7557 148.018 75.6556C148.205 75.3552 148.377 75.0549 148.563 74.7546C148.693 74.54 148.979 74.4828 149.195 74.6115L165.933 85.0231L165.918 85.0088Z" fill="#202020"/>
<path d="M196.253 68.5048C195.708 68.5191 195.149 68.562 194.604 68.6049L193.385 49.7267C193.385 49.598 193.414 49.4836 193.5 49.3978C193.586 49.312 193.686 49.2548 193.815 49.2405L194.848 49.1833C194.963 49.1833 195.092 49.2119 195.178 49.2977C195.264 49.3835 195.321 49.4836 195.321 49.6123L196.268 68.4905L196.253 68.5048Z" fill="#202020"/>
<path d="M170.508 79.6457C170.135 80.0033 169.762 80.3894 169.404 80.7755L154.702 67.3749C154.516 67.2033 154.501 66.9173 154.673 66.7314C154.917 66.4596 155.175 66.1879 155.419 65.9305C155.505 65.8447 155.62 65.7875 155.735 65.7875C155.85 65.7875 155.964 65.8304 156.065 65.9162L170.522 79.6457H170.508Z" fill="#202020"/>
<path d="M191.535 16.0607C191.535 15.9463 191.463 15.8319 191.377 15.7604C191.291 15.6889 191.162 15.646 191.047 15.6603C190.602 15.7032 190.172 15.7461 189.742 15.789C189.498 15.8176 189.312 16.0321 189.34 16.2895L190.76 29.9476C190.789 30.1764 190.975 30.348 191.205 30.348C191.219 30.348 191.233 30.348 191.248 30.348L192.338 30.2479C192.582 30.2193 192.768 30.0048 192.739 29.7617L191.52 16.0893L191.535 16.0607Z" fill="#202020"/>
<path d="M286.327 79.4026C286.384 79.3025 286.398 79.1738 286.355 79.0593L285.968 77.8437C285.94 77.7293 285.853 77.6292 285.739 77.572C285.638 77.5148 285.509 77.5005 285.394 77.5434L272.271 81.7052C272.027 81.7767 271.898 82.0341 271.97 82.2772L272.299 83.3355C272.357 83.5358 272.543 83.6502 272.73 83.6502C272.773 83.6502 272.816 83.6502 272.859 83.6359L286.026 79.6314C286.14 79.6028 286.241 79.517 286.298 79.4169L286.327 79.4026Z" fill="#202020"/>
<path d="M275.742 98.624C275.742 98.624 275.77 98.624 275.785 98.624L289.497 97.2796C289.611 97.2796 289.726 97.2081 289.798 97.1223C289.869 97.0222 289.912 96.9078 289.898 96.7934L289.769 95.5062C289.769 95.3918 289.697 95.2774 289.597 95.2059C289.497 95.1344 289.382 95.0915 289.267 95.1058L275.584 96.6217C275.34 96.6503 275.154 96.8649 275.182 97.1223L275.297 98.2235C275.326 98.4523 275.512 98.624 275.742 98.624Z" fill="#202020"/>
<path d="M107.959 92.8604C107.844 92.8604 107.715 92.8747 107.629 92.9462C107.529 93.0177 107.471 93.1321 107.457 93.2466L107.299 94.5337C107.285 94.6481 107.313 94.7768 107.399 94.8626C107.471 94.9628 107.586 95.02 107.701 95.0343L121.384 96.6074C121.384 96.6074 121.412 96.6074 121.441 96.6074C121.671 96.6074 121.857 96.4358 121.886 96.207L122.015 95.1058C122.044 94.8626 121.871 94.6338 121.628 94.6052L107.973 92.8461L107.959 92.8604Z" fill="#202020"/>
<path d="M124.64 81.6765C124.826 81.6765 125.012 81.5621 125.07 81.3619L125.414 80.3179C125.486 80.0748 125.371 79.8316 125.127 79.7458L112.075 75.3695C111.831 75.2837 111.588 75.4124 111.502 75.6556C111.358 76.0703 111.229 76.4851 111.086 76.8998C111.043 77.0142 111.057 77.1429 111.114 77.243C111.172 77.3432 111.258 77.429 111.372 77.4719L124.496 81.6479C124.496 81.6479 124.582 81.6622 124.64 81.6622V81.6765Z" fill="#202020"/>
<path d="M156.538 40.1589C156.624 40.302 156.768 40.3735 156.925 40.3735C157.011 40.3735 157.083 40.3592 157.155 40.302L158.101 39.7299C158.317 39.6012 158.388 39.3295 158.259 39.1149L151.188 27.3304C151.131 27.2303 151.03 27.1588 150.916 27.1302C150.801 27.1016 150.672 27.1302 150.571 27.1874C150.198 27.4162 149.826 27.6307 149.453 27.8596C149.352 27.9168 149.281 28.0169 149.252 28.1456C149.223 28.26 149.252 28.3887 149.309 28.4888L156.552 40.1732L156.538 40.1589Z" fill="#202020"/>
<path d="M256.02 54.9182C256.121 54.9182 256.235 54.8753 256.322 54.8038L266.62 45.6794C266.806 45.5078 266.82 45.2217 266.663 45.0358C266.376 44.7069 266.089 44.3922 265.788 44.0776C265.616 43.8917 265.329 43.8774 265.142 44.049L254.973 53.3021C254.787 53.4738 254.772 53.7598 254.945 53.9457L255.69 54.7752C255.776 54.8753 255.906 54.9182 256.035 54.9182H256.02Z" fill="#202020"/>
<path d="M170.25 33.3657C170.322 33.5516 170.494 33.666 170.68 33.666C170.737 33.666 170.78 33.666 170.838 33.6374L171.885 33.2513C172.114 33.1655 172.243 32.908 172.157 32.6792L167.496 19.7505C167.453 19.6361 167.367 19.5503 167.266 19.4931C167.152 19.4359 167.037 19.4359 166.922 19.4788L165.717 19.9222C165.603 19.9651 165.517 20.0509 165.459 20.151C165.402 20.2654 165.402 20.3798 165.459 20.4942L170.264 33.3657H170.25Z" fill="#202020"/>
<path d="M121.599 55.8907L133.331 63.0701C133.403 63.113 133.489 63.1416 133.575 63.1416C133.733 63.1416 133.876 63.0701 133.962 62.9271L134.55 61.9832C134.68 61.7687 134.622 61.497 134.407 61.3682L122.761 54.0458C122.66 53.9886 122.531 53.96 122.416 53.9886C122.302 54.0172 122.201 54.0887 122.13 54.1888L121.441 55.2758C121.384 55.3759 121.355 55.5046 121.384 55.619C121.412 55.7334 121.484 55.8335 121.584 55.905L121.599 55.8907Z" fill="#202020"/>
<path d="M264.081 66.1021L264.64 67.046C264.726 67.189 264.87 67.2605 265.028 67.2605C265.099 67.2605 265.185 67.2462 265.257 67.2033L277.133 60.2527C277.348 60.124 277.42 59.8523 277.291 59.6377C277.076 59.2659 276.846 58.8798 276.617 58.5079C276.488 58.2934 276.201 58.2219 276 58.3506L264.224 65.4728C264.009 65.6015 263.938 65.8733 264.067 66.0878L264.081 66.1021Z" fill="#202020"/>
<path d="M240.989 40.7167C241.075 40.7739 241.161 40.8025 241.247 40.8025C241.39 40.8025 241.534 40.731 241.62 40.6166L249.537 29.3755C249.681 29.1753 249.638 28.8893 249.422 28.7463C249.064 28.4888 248.691 28.2457 248.332 27.9883C248.117 27.8453 247.845 27.9025 247.701 28.1027L239.971 39.4725C239.899 39.5726 239.884 39.687 239.899 39.8157C239.927 39.9301 239.985 40.0445 240.085 40.1017C240.386 40.302 240.688 40.5165 240.975 40.7167H240.989Z" fill="#202020"/>
<path d="M206.494 30.2479L207.613 30.3623C207.613 30.3623 207.642 30.3623 207.656 30.3623C207.886 30.3623 208.086 30.1907 208.101 29.9619L209.535 16.3038C209.535 16.1894 209.506 16.0607 209.435 15.9749C209.363 15.8748 209.248 15.8176 209.133 15.8176L207.843 15.6889C207.728 15.6889 207.599 15.7175 207.513 15.789C207.412 15.8605 207.355 15.9749 207.355 16.0893L206.093 29.7617C206.064 30.0048 206.251 30.2336 206.494 30.2479Z" fill="#202020"/>
<path d="M226.718 32.8365C227.048 32.9795 227.378 33.1226 227.722 33.2656C227.779 33.2942 227.836 33.3085 227.908 33.3085C228.08 33.3085 228.252 33.2084 228.324 33.0367L233.889 20.4799C233.99 20.2511 233.889 19.9794 233.66 19.8793C233.258 19.6933 232.842 19.5217 232.441 19.3501C232.326 19.3072 232.211 19.3072 232.096 19.3501C231.982 19.393 231.896 19.4788 231.852 19.5932L226.503 32.2502C226.402 32.479 226.503 32.7507 226.746 32.8365H226.718Z" fill="#202020"/>
<path d="M133.59 39.7871C133.475 39.7871 133.36 39.8443 133.274 39.9301C132.973 40.2448 132.672 40.5594 132.37 40.8883C132.198 41.0743 132.213 41.3603 132.399 41.5319L142.525 50.8423C142.611 50.9281 142.726 50.9567 142.826 50.9567C142.941 50.9567 143.07 50.9138 143.156 50.8137L143.916 50.0128C144.088 49.8268 144.074 49.5408 143.902 49.3692L133.919 39.9158C133.833 39.83 133.719 39.7871 133.59 39.7871Z" fill="#202020"/>
</g>
<defs>
<clipPath id="clip0_3_3973">
<rect width="380" height="167" fill="white"/>
</clipPath>
</defs>
</svg>
